<mxfile host="app.diagrams.net" modified="2021-09-07T06:50:59.536Z" agent="5.0 (Windows NT 10.0; Win64; x64) AppleWebKit/537.36 (KHTML, like Gecko) Chrome/92.0.4515.159 Safari/537.36" etag="220dEGGQyopy7p8QLGbe" version="15.1.0" type="github">
  <diagram id="sjrF3_99siXIONfSpEQq" name="Page-1">
    <mxGraphModel dx="920" dy="525" grid="1" gridSize="10" guides="1" tooltips="1" connect="1" arrows="1" fold="1" page="1" pageScale="1" pageWidth="827" pageHeight="1169" math="0" shadow="0">
      <root>
        <mxCell id="0" />
        <mxCell id="1" parent="0" />
        <mxCell id="tRoSRP1I7TWQ550arJ7f-1" value="192.168.153.125&lt;br&gt;master" style="rounded=1;whiteSpace=wrap;html=1;" vertex="1" parent="1">
          <mxGeometry x="354" y="554" width="120" height="60" as="geometry" />
        </mxCell>
        <mxCell id="tRoSRP1I7TWQ550arJ7f-2" value="192.168.153.126&lt;br&gt;node1" style="rounded=1;whiteSpace=wrap;html=1;" vertex="1" parent="1">
          <mxGeometry x="83" y="720" width="120" height="60" as="geometry" />
        </mxCell>
        <mxCell id="tRoSRP1I7TWQ550arJ7f-3" value="192.168.153.127&lt;br&gt;node2" style="rounded=1;whiteSpace=wrap;html=1;" vertex="1" parent="1">
          <mxGeometry x="263" y="720" width="120" height="60" as="geometry" />
        </mxCell>
        <mxCell id="tRoSRP1I7TWQ550arJ7f-4" value="192.168.153.128&lt;br&gt;node3" style="rounded=1;whiteSpace=wrap;html=1;" vertex="1" parent="1">
          <mxGeometry x="443" y="720" width="120" height="60" as="geometry" />
        </mxCell>
        <mxCell id="tRoSRP1I7TWQ550arJ7f-5" value="192.168.153.129&lt;br&gt;node4&lt;br&gt;nfs" style="rounded=1;whiteSpace=wrap;html=1;" vertex="1" parent="1">
          <mxGeometry x="623" y="720" width="120" height="60" as="geometry" />
        </mxCell>
        <mxCell id="tRoSRP1I7TWQ550arJ7f-6" value="" style="rounded=1;whiteSpace=wrap;html=1;" vertex="1" parent="1">
          <mxGeometry x="204" y="380" width="120" height="60" as="geometry" />
        </mxCell>
        <mxCell id="tRoSRP1I7TWQ550arJ7f-7" value="" style="rounded=1;whiteSpace=wrap;html=1;" vertex="1" parent="1">
          <mxGeometry x="504" y="380" width="120" height="60" as="geometry" />
        </mxCell>
        <mxCell id="tRoSRP1I7TWQ550arJ7f-8" value="" style="rounded=1;whiteSpace=wrap;html=1;" vertex="1" parent="1">
          <mxGeometry x="354" y="150" width="120" height="60" as="geometry" />
        </mxCell>
      </root>
    </mxGraphModel>
  </diagram>
</mxfile>
